<?xml version="1.0" standalone="no"?><!DOCTYPE svg PUBLIC "-//W3C//DTD SVG 1.1//EN" "http://www.w3.org/Graphics/SVG/1.1/DTD/svg11.dtd"><svg t="1599133993977" class="icon" viewBox="0 0 1024 1024" version="1.1" xmlns="http://www.w3.org/2000/svg" p-id="3841" xmlns:xlink="http://www.w3.org/1999/xlink" width="200" height="200"><defs><style type="text/css"></style></defs><path d="M273.968127 511.95114c0 75.512549-61.294398 136.538219-136.977956 136.53822C61.331043 648.46493 0.012215 587.439259 0.012215 511.95114c0-75.292681 61.343258-136.4405 136.977956-136.4405 75.683558 0 136.977956 61.147819 136.977956 136.4405zM648.965741 511.95114c0 75.512549-61.294398 136.538219-136.953526 136.53822s-136.977956-61.02567-136.977956-136.53822c0-75.292681 61.343258-136.4405 136.977956-136.4405 75.683558 0 136.953526 61.147819 136.953526 136.4405zM1023.987785 511.95114c0 75.512549-61.294398 136.538219-136.977956 136.53822-75.659128 0-136.953526-61.02567-136.953526-136.53822 0-75.292681 61.343258-136.4405 136.953526-136.4405 75.683558 0 136.977956 61.147819 136.977956 136.4405z" p-id="3842" fill="#666666"></path></svg>
