<?xml version="1.0" standalone="no"?><!DOCTYPE svg PUBLIC "-//W3C//DTD SVG 1.1//EN" "http://www.w3.org/Graphics/SVG/1.1/DTD/svg11.dtd"><svg t="1590741452748" class="icon" viewBox="0 0 1024 1024" version="1.1" xmlns="http://www.w3.org/2000/svg" p-id="3315" xmlns:xlink="http://www.w3.org/1999/xlink" width="200" height="200"><defs><style type="text/css"></style></defs><path d="M924.78 337.61A449.35 449.35 0 1 0 960 512a446.29 446.29 0 0 0-35.22-174.39zM775 775a372 372 0 1 1 109-263 369.53 369.53 0 0 1-109 263z" p-id="3316"></path><path d="M710.3 472.88L477 294.28a48 48 0 0 0-77.18 38.11v357.22A47.95 47.95 0 0 0 477 727.72l233.3-178.6a48 48 0 0 0 0-76.24zM463.77 657.21V364.79L654.8 511z" p-id="3317"></path></svg>